<?xml version="1.0" encoding="UTF-8" standalone="no"?>
<!-- Created with Inkscape (http://www.inkscape.org/) -->

<svg
   width="270"
   height="85"
   id="svg2"
   version="1.1"
   inkscape:version="1.3 (0e150ed6c4, 2023-07-21)"
   sodipodi:docname="resistor.svg"
   inkscape:export-filename="resistor2.png"
   inkscape:export-xdpi="126.02"
   inkscape:export-ydpi="126.02"
   xmlns:inkscape="http://www.inkscape.org/namespaces/inkscape"
   xmlns:sodipodi="http://sodipodi.sourceforge.net/DTD/sodipodi-0.dtd"
   xmlns="http://www.w3.org/2000/svg"
   xmlns:svg="http://www.w3.org/2000/svg"
   xmlns:rdf="http://www.w3.org/1999/02/22-rdf-syntax-ns#"
   xmlns:cc="http://creativecommons.org/ns#"
   xmlns:dc="http://purl.org/dc/elements/1.1/">
  <defs
     id="defs4" />
  <sodipodi:namedview
     id="base"
     pagecolor="#ffffff"
     bordercolor="#666666"
     borderopacity="1.0"
     inkscape:pageopacity="0.0"
     inkscape:pageshadow="2"
     inkscape:zoom="3.9597981"
     inkscape:cx="125.76399"
     inkscape:cy="33.71384"
     inkscape:document-units="in"
     inkscape:current-layer="layer"
     showgrid="false"
     units="in"
     inkscape:window-width="1920"
     inkscape:window-height="1017"
     inkscape:window-x="-8"
     inkscape:window-y="-8"
     inkscape:window-maximized="1"
     inkscape:showpageshadow="2"
     inkscape:pagecheckerboard="0"
     inkscape:deskcolor="#d1d1d1" />
  <metadata
     id="metadata7">
    <rdf:RDF>
      <cc:Work
         rdf:about="">
        <dc:format>image/svg+xml</dc:format>
        <dc:type
           rdf:resource="http://purl.org/dc/dcmitype/StillImage" />
      </cc:Work>
    </rdf:RDF>
  </metadata>
  <g
     inkscape:label="layer"
     inkscape:groupmode="layer"
     id="layer"
     transform="translate(0,27.6403)">
    <g
       id="group"
       transform="matrix(0.23303894,0,0,0.23203369,-104.40677,-64.145003)"
       inkscape:label="group">
      <rect
         y="318.11612"
         x="490.93411"
         height="48.487324"
         width="1072.7821"
         id="wires"
         style="fill:#666666;stroke:none;stroke-width:0.718007"
         inkscape:label="wires" />
      <path
         inkscape:connector-curvature="0"
         id="resistor"
         d="m 798.5625,1308.5625 c -21.47944,0 -37.32619,4.0094 -49.46875,10.5625 -0.0526,0.028 -0.10377,0.065 -0.15625,0.094 -18.04664,8.9915 -27.35769,22.7119 -33.90625,37.4374 -14.51122,27.7533 -22.11341,59.0945 -55.8125,69.0938 -1.31397,0.3899 -2.62206,0.7469 -3.9375,1.125 v 46.2188 c 1.31639,0.3788 2.62251,0.766 3.9375,1.1562 64.74738,19.2121 12.93753,117.1875 139.34375,117.1875 0.73556,0 1.52761,-0.033 2.3125,-0.062 1.42733,0.029 2.86724,0.062 4.34375,0.062 30.2139,0 103.1066,-25.625 131.1875,-25.625 h 185.24995 c 28.081,0 100.9736,25.625 131.1876,25.625 1.4764,0 2.9164,-0.034 4.3437,-0.062 0.7849,0.03 1.5769,0.062 2.3125,0.062 126.4062,0 74.5964,-97.9754 139.3438,-117.1875 1.3149,-0.3902 2.6211,-0.7774 3.9374,-1.1562 v -46.2188 c -1.3154,-0.3781 -2.6235,-0.7351 -3.9374,-1.125 -33.6993,-9.9993 -41.3013,-41.3405 -55.8126,-69.0938 -6.5485,-14.7255 -15.8596,-28.4459 -33.9062,-37.4374 -0.053,-0.029 -0.1037,-0.065 -0.1562,-0.094 -12.1426,-6.5531 -27.9894,-10.5625 -49.4688,-10.5625 -0.7233,0 -1.4833,0.034 -2.25,0.062 -1.4474,-0.029 -2.9088,-0.062 -4.4062,-0.062 -30.214,0 -103.1066,25.625 -131.1876,25.625 H 936.40625 c -28.0809,0 -100.9736,-25.625 -131.1875,-25.625 -1.49753,0 -2.95885,0.034 -4.40625,0.062 -0.76674,-0.029 -1.52669,-0.062 -2.25,-0.062 z"
         style="fill:#d9bb7a;fill-opacity:1;stroke:#565248"
         transform="translate(0,-1107.6403)"
         inkscape:label="resistor" />
      <path
         id="first-digit"
         style="fill:#000000;fill-opacity:0;stroke:none"
         d="m 805.5845,200.93978 v 282.83984 c 11.93429,-0.0742 30.34795,-4.04213 50,-8.82812 V 209.7679 c -19.65205,-4.78599 -38.06571,-8.75394 -50,-8.82812 z"
         inkscape:label="first-digit" />
      <path
         id="second-digit"
         style="fill:#000000;fill-opacity:0;stroke:none"
         d="m 880.5845,215.66439 v 253.39062 c 18.9736,-4.74626 37.17294,-9.12052 50,-10.4414 V 226.10579 c -12.82706,-1.32088 -31.0264,-5.69514 -50,-10.4414 z"
         inkscape:label="second-digit" />
      <path
         id="third-digit"
         style="fill:#000000;fill-opacity:0;stroke:none;stroke-width:0.96;stroke-dasharray:none;stroke-opacity:1"
         d="m 955.5845,226.5472 v 231.625 h 50 v -231.625 z"
         inkscape:label="third-digit" />
      <path
         id="multiplier"
         style="fill:#000000;fill-opacity:0;stroke:none"
         d="m 1030.5845,226.5472 v 231.625 h 50 v -231.625 z"
         inkscape:label="multiplier" />
      <path
         id="tolerance"
         style="fill:#000000;fill-opacity:0;stroke:none;stroke-opacity:1"
         d="m 1198.0044,211.17611 c -17.3437,4.29684 -35.0068,8.85218 -50,11.91797 v 238.53124 c 14.9932,3.06579 32.6563,7.62113 50,11.91797 z"
         inkscape:label="tolerance" />
      <path
         id="temperature-coefficient"
         style="fill:#000000;fill-opacity:0;stroke:none"
         d="m 1254.063,200.9222 c -7.9214,0 -18.8467,1.80513 -31.0586,4.4043 v 274.0664 c 12.2119,2.59917 23.1372,4.4043 31.0586,4.4043 1.4764,0 2.9166,-0.0345 4.3438,-0.0625 0.7849,0.03 1.5769,0.0625 2.3125,0.0625 4.3125,0 8.3757,-0.13636 12.2851,-0.35742 V 201.51595 c -3.9227,-0.32007 -7.9116,-0.59375 -12.2851,-0.59375 -0.7233,0 -1.4833,0.0345 -2.25,0.0625 -1.4474,-0.029 -2.9089,-0.0625 -4.4063,-0.0625 z"
         inkscape:label="temperature-coefficient" />
    </g>
  </g>
</svg>
